<?xml version="1.0" encoding="UTF-8"?>
<svg width="19px" height="19px" viewBox="0 0 19 19" version="1.1" xmlns="http://www.w3.org/2000/svg" xmlns:xlink="http://www.w3.org/1999/xlink">
    <!-- Generator: sketchtool 63.1 (101010) - https://sketch.com -->
    <title>C150892D-0B9D-4842-AA04-3C75E08D5727</title>
    <desc>Created with sketchtool.</desc>
    <defs>
        <path d="M16.68855,11.2407824 C16.88238,11.2407824 17.04,11.3973257 17.04,11.5907026 L17.04,11.5907026 L17.04,15.5255348 C17.04,16.3387099 16.37757,17.0003 15.56178,17.0003 L15.56178,17.0003 L1.47822,17.0003 C0.66314,17.0003 -9.09494702e-13,16.3387099 -9.09494702e-13,15.5255348 L-9.09494702e-13,15.5255348 L-9.09494702e-13,11.5907026 C-9.09494702e-13,11.3973257 0.15691,11.2407824 0.35145,11.2407824 C0.54599,11.2407824 0.7029,11.3973257 0.7029,11.5907026 L0.7029,11.5907026 L0.7029,15.5255348 C0.7029,15.9519559 1.0508,16.2997511 1.47822,16.2997511 L1.47822,16.2997511 L15.56178,16.2997511 C15.98991,16.2997511 16.33781,15.9519559 16.33781,15.5255348 L16.33781,15.5255348 L16.33781,11.5907026 C16.33781,11.3973257 16.49472,11.2407824 16.68855,11.2407824 Z M8.51935647,-0.0003 C8.56408647,-0.0003 8.60810647,0.00890842812 8.65070647,0.0259086031 C8.66987647,0.03370035 8.68620647,0.0485755031 8.70395647,0.0592006125 C8.72241647,0.0705340625 8.74158647,0.0776174687 8.75791647,0.0924926219 L8.75791647,0.0924926219 L12.4200965,3.46490234 C12.5620965,3.59594535 12.5713265,3.81765597 12.4392665,3.96003243 C12.3079165,4.1024089 12.0856865,4.11090899 11.9429765,3.97986597 L11.9429765,3.97986597 L8.87080647,1.15075352 L8.87080647,11.590986 C8.87080647,11.784363 8.71389647,11.9416146 8.51935647,11.9416146 C8.32552647,11.9416146 8.16790647,11.784363 8.16790647,11.590986 L8.16790647,11.590986 L8.16790647,1.15075352 L5.09573647,3.97986597 C4.95444647,4.11090899 4.73079647,4.10099222 4.60015647,3.96003243 C4.46809647,3.81765597 4.47732647,3.59594535 4.62003647,3.46490234 L4.62003647,3.46490234 L8.28079647,0.0924926219 C8.29712647,0.0776174687 8.31629647,0.0705340625 8.33475647,0.0592006125 C8.35250647,0.0485755031 8.36883647,0.03370035 8.38800647,0.0259086031 C8.43060647,0.00890842812 8.47462647,-0.0003 8.51935647,-0.0003 Z" id="path-1"></path>
    </defs>
    <g id="Page-1" stroke="none" stroke-width="1" fill="none" fill-rule="evenodd">
        <g id="Image-Element-3" transform="translate(-1318.000000, -421.000000)">
            <g id="Group-2" transform="translate(974.000000, 325.000000)">
                <g id="Group-8" transform="translate(332.000000, 84.000000)">
                    <g id="Group-3">
                        <g id="Group-9" transform="translate(13.000000, 13.000000)">
                            <g id="icons/Upload">
                                <mask id="mask-2" fill="white">
                                    <use xlink:href="#path-1"></use>
                                </mask>
                                <use id="Upload" stroke="#248700" stroke-width="0.5" fill="#248700" xlink:href="#path-1"></use>
                            </g>
                        </g>
                    </g>
                </g>
            </g>
        </g>
    </g>
</svg>